<<<<<<< HEAD
<svg width="1677" height="198" viewBox="0 0 1677 198" fill="none" xmlns="http://www.w3.org/2000/svg">
<path d="M1549.18 155.358L1535.82 191.951H1492.2L1564.25 5.20898H1604.34L1676.39 191.951H1632.77L1619.41 155.358H1549.18ZM1584.3 59.9033L1562.55 119.025H1606.04L1584.3 59.9033Z" fill="white"/>
<path d="M1438.26 191.951V5.20898H1478.72V191.951H1438.26Z" fill="white"/>
<path d="M1265.01 5.20898H1421.13V42.8439H1363.3V191.951H1322.84V42.8439H1265.01V5.20898Z" fill="white"/>
<path d="M1162.1 155.358L1148.74 191.951H1105.12L1177.17 5.20898H1217.26L1289.31 191.951H1245.69L1232.32 155.358H1162.1ZM1197.21 59.9033L1175.46 119.025H1218.96L1197.21 59.9033Z" fill="white"/>
<path d="M1051.18 77.8743V5.20898H1091.63V191.951H1051.18V115.509H975.241V191.951H934.783V5.20898H975.241V77.8743H1051.18Z" fill="white"/>
<path d="M844.998 191.951H760.802V5.20898H843.054C887.116 5.20898 909.147 21.8343 909.147 55.085C909.147 64.548 906.313 72.7956 900.643 79.8277C894.973 86.8598 887.886 91.2875 879.381 93.1106C890.883 95.7151 899.752 100.75 905.989 108.217C912.225 115.596 915.344 124.842 915.344 135.955C915.344 141.598 914.696 146.937 913.4 151.972C912.104 157.008 909.755 162.043 906.353 167.078C903.032 172.027 898.78 176.324 893.596 179.97C888.493 183.53 881.771 186.438 873.428 188.696C865.085 190.866 855.609 191.951 844.998 191.951ZM801.26 155.749H844.026C855.285 155.749 863.101 154.056 867.475 150.67C871.848 147.284 874.035 141.945 874.035 134.652C874.035 127.273 871.848 121.934 867.475 118.635C863.101 115.249 855.285 113.556 844.026 113.556H801.26V155.749ZM801.26 78.5255H844.026C860.225 78.5255 868.325 72.3615 868.325 60.0336C868.325 47.7056 860.225 41.5417 844.026 41.5417H801.26V78.5255Z" fill="white"/>
<path d="M517.812 5.20898H673.933V42.8439H616.101V191.951H575.643V42.8439H517.812V5.20898Z" fill="white"/>
<path d="M414.905 155.358L401.541 191.951H357.924L429.971 5.20898H470.064L542.111 191.951H498.494L485.13 155.358H414.905ZM450.018 59.9033L428.27 119.025H471.765L450.018 59.9033Z" fill="white"/>
<path d="M270.084 80.4788H353.915V118.114H270.084V191.951H229.626V5.20898H359.139V42.8439H270.084V80.4788Z" fill="white"/>
<path d="M164.747 191.951V5.20898H205.205V191.951H164.747Z" fill="white"/>
<path d="M140.691 18.7524L121.009 49.3552C106.349 41.5417 90.3923 37.6349 73.14 37.6349C64.3114 37.6349 57.6696 39.1976 53.2148 42.323C48.76 45.4484 46.5326 49.9195 46.5326 55.7362C46.5326 61.7265 49.165 66.5014 54.4298 70.0609C59.6946 73.5335 67.8752 76.4853 78.9718 78.9162C90.4733 81.5206 100.274 84.5158 108.374 87.9017C116.554 91.2007 123.682 95.2811 129.757 100.143C135.831 104.918 140.327 110.604 143.243 117.202C146.24 123.8 147.738 131.44 147.738 140.122C147.738 159.048 141.137 173.286 127.934 182.835C114.732 192.385 96.4671 197.16 73.14 197.16C42.3613 197.16 17.9813 189.694 0 174.762L19.6822 144.159C34.9096 154.403 52.7288 159.525 73.14 159.525C84.9655 159.525 93.5107 157.876 98.7755 154.577C104.121 151.278 106.794 146.459 106.794 140.122C106.794 134.218 104.081 129.66 98.654 126.448C93.2272 123.236 84.1151 120.241 71.3176 117.463C48.7195 112.34 32.1152 104.657 21.5046 94.4129C10.8941 84.0817 5.58877 71.1895 5.58877 55.7362C5.58877 49.8326 6.31774 44.233 7.77568 38.9372C9.23362 33.6414 11.623 28.606 14.9439 23.8311C18.3458 18.9694 22.5981 14.8022 27.7009 11.3295C32.8037 7.85689 39.2024 5.12217 46.8971 3.12539C54.6728 1.0418 63.4204 0 73.14 0C100.841 0 123.358 6.25078 140.691 18.7524Z" fill="white"/>
=======
<svg width="1702" height="203" viewBox="0 0 1702 203" fill="#f7f7f2" fill-opacity="0.58" xmlns="http://www.w3.org/2000/svg">
<path d="M1625.07 5.26904L1625.68 6.88525L1696.28 193.759L1697.55 197.143H1652.25L1651.66 195.465L1636.33 151.462H1570.17L1553.7 195.518L1553.09 197.143H1508.97L1510.27 193.75L1581.78 6.87549L1582.4 5.26904H1625.07ZM1583.56 113.702H1623.97L1604.37 57.6919L1583.56 113.702Z" stroke="#f7f7f2" stroke-opacity="0.58" stroke-width="5"/>
<path d="M1493.89 5.26904V197.143H1450.59V5.26904H1493.89Z" stroke="#f7f7f2" stroke-opacity="0.58" stroke-width="5"/>
<path d="M1430.11 5.26904V44.4136H1375.2V197.143H1331.91V44.4136H1277V5.26904H1430.11Z" stroke="#f7f7f2" stroke-opacity="0.58" stroke-width="5"/>
<path d="M1233.77 5.26904L1234.38 6.88525L1304.98 193.759L1306.25 197.143H1260.95L1260.36 195.465L1245.03 151.462H1178.86L1162.4 195.518L1161.79 197.143H1117.67L1118.96 193.75L1190.48 6.87549L1191.1 5.26904H1233.77ZM1192.26 113.702H1232.67L1213.07 57.6919L1192.26 113.702Z" stroke="#f7f7f2" stroke-opacity="0.58" stroke-width="5"/>
<path d="M985.095 5.26904V78.1724H1059.92V5.26904H1102.99V197.143H1059.92V117.318H985.095V197.143H942.029V5.26904H985.095Z" stroke="#f7f7f2" stroke-opacity="0.58" stroke-width="5"/>
<path d="M850.973 5.26904C861.747 5.26909 871.363 7.32919 879.758 11.5229C888.29 15.7083 895.099 21.6137 900.124 29.2329C905.197 36.9241 907.689 45.9536 907.689 56.2173C907.689 65.7589 905.094 74.1291 899.833 81.2114L899.834 81.2124C895.87 86.7109 890.982 90.9727 885.194 93.9761C889.686 95.7065 893.874 98.1597 897.749 101.327C903.27 105.558 907.639 110.991 910.864 117.578L911.182 118.199C914.424 124.653 915.994 132.244 915.995 140.887C915.995 152.077 913.271 162.016 907.755 170.615L907.754 170.614C902.43 179 895.167 185.527 886.021 190.18C876.852 194.845 866.378 197.143 854.664 197.143H763.111V5.26904H850.973ZM806.177 157.998H848.897C856.31 157.997 861.997 156.116 866.207 152.584C870.453 149 872.697 143.843 872.697 136.735C872.697 129.594 870.509 124.531 866.439 121.117C862.228 117.585 856.541 115.703 849.127 115.703H806.177V157.998ZM806.177 79.7876H846.127C851.947 79.7876 856.271 78.1689 859.394 75.1763L859.412 75.1587L859.431 75.1421C862.644 72.1862 864.392 67.9238 864.392 61.9858C864.392 56.0427 862.643 51.8875 859.472 49.0972L859.432 49.062L859.394 49.0249C856.271 46.0324 851.947 44.4136 846.127 44.4136H806.177V79.7876Z" stroke="#f7f7f2" stroke-opacity="0.58" stroke-width="5"/>
<path d="M680.162 5.26904V44.4136H625.254V197.143H581.956V44.4136H527.048V5.26904H680.162Z" stroke="#f7f7f2" stroke-opacity="0.58" stroke-width="5"/>
<path d="M483.818 5.26904L484.429 6.88525L555.025 193.759L556.303 197.143H510.997L510.413 195.465L495.078 151.462H428.915L412.45 195.518L411.843 197.143H367.716L369.015 193.75L440.534 6.87549L441.15 5.26904H483.818ZM442.312 113.702H482.719L463.115 57.6919L442.312 113.702Z" stroke="#f7f7f2" stroke-opacity="0.58" stroke-width="5"/>
<path d="M388.798 5.26904V44.4136H304.359V80.9409H381.647V120.086H304.359V197.143H261.292V5.26904H388.798Z" stroke="#f7f7f2" stroke-opacity="0.58" stroke-width="5"/>
<path d="M224.544 5.26904V197.143H181.246V5.26904H224.544Z" stroke="#f7f7f2" stroke-opacity="0.58" stroke-width="5"/>
<path d="M79.6674 2.5C93.7958 2.50001 106.313 4.93342 117.157 9.87695C127.98 14.8113 136.64 21.848 143.065 30.9941C149.675 40.1842 153.347 51.0299 154.143 63.4404L154.314 66.0996H110.847L110.44 64.0986C108.69 55.4939 104.953 49.1468 99.3607 44.8125L99.3461 44.8008L99.3304 44.7881C93.7093 40.2913 86.4521 37.9532 77.3607 37.9531C68.9614 37.9531 62.5526 39.8675 57.8842 43.4375L57.8754 43.4443C53.4342 46.8088 51.2524 51.2187 51.2523 56.9092C51.2523 61.1494 52.746 64.8366 55.8422 68.0771C59.0896 71.3167 64.0512 73.838 70.9847 75.4639L103.972 82.8457C120.887 86.6045 133.807 93.0923 142.42 102.519C151.238 111.845 155.533 124.266 155.533 139.503C155.533 157.84 149.118 172.635 136.205 183.616L136.206 183.617C123.455 194.593 105.647 199.911 83.1283 199.911C67.6268 199.911 53.9625 197.327 42.1976 192.08L42.1859 192.075C30.5825 186.83 21.2991 179.324 14.4095 169.551L14.4017 169.54L14.3939 169.528C7.65526 159.741 3.83769 148.307 2.88611 135.302L2.68982 132.619H46.2504L46.6029 134.702C48.2058 144.174 52.2288 151.169 58.5443 155.949L59.1625 156.396C65.6213 160.938 74.0093 163.304 84.5121 163.304C94.2067 163.304 101.274 161.284 106.056 157.595C110.782 153.949 113.158 149.013 113.158 142.502C113.158 137.408 111.531 133.374 108.353 130.196L108.316 130.16L108.281 130.121C105.228 126.804 100.021 124.121 92.2552 122.329V122.328L60.8861 115.178H60.8822C43.8322 111.267 30.7806 104.788 22.0209 95.542C13.2264 86.2589 8.87732 74.5461 8.87732 60.6006C8.87733 48.9431 11.7589 38.6802 17.6029 29.9141L17.6117 29.9004L17.6205 29.8877C23.5959 21.1668 31.8915 14.4274 42.4115 9.64551L42.4242 9.63965C53.1146 4.85291 65.5504 2.5 79.6674 2.5Z" stroke="#f7f7f2" stroke-opacity="0.58" stroke-width="5"/>
>>>>>>> 3babd2b66149a1aa12626224c79a39167987fda2
</svg>
